# xmcd CD database file
#
# Track frame offsets:
#	187
#	15625
#	27115
#	43640
#	55882
#	71205
#	86375
#	103960
#	119562
#	132722
#	150912
#	162725
#	176717
#	193160
#	209092
#	222347
#	238582
#	252720
#	262455
#	284255
#
# Disc length: 3974 seconds
#
# Revision: 3
# Processed by: cddbd v1.5.1PL0 Copyright (c) Steve Scherf et al.
# Submitted via: CDex 1.51
#
DISCID=440f8414
DTITLE=Various Artist - Reader's Digest: Great Original Country Hits Of The '80s [CD1]
DYEAR=1900
DGENRE=Country
TTITLE0=Alabama - 40 Hour Week (For A Livin')
TTITLE1=Willie Nelson - On The Road Again
TTITLE2=K.T. Oslin - Do Ya'
TTITLE3=Judds - Rockin With The Rhythm Of The Rain
TTITLE4=John Schneider - What's A Memory Like You (Doing In A Love Like This)
TTITLE5=Steve Wariner - I Got Dreams
TTITLE6=Anne Murray and Dave Loggins - Nobody Loves Me Like You Do
TTITLE7=Restless Heart - That Rock Won't Roll
TTITLE8=Clint Black - A Better Man
TTITLE9=T. Graham Brown - Don't Go To Strangers
TTITLE10=George Strait - Ace In The Hole
TTITLE11=Lee Greenwood - Don't Understand My Love For You
TTITLE12=Steve Wariner - Small Town Girl
TTITLE13=Waylon Jennings - Rose In Paradise
TTITLE14=Larry Gatlin - Houston (Means I'm One Day Closer To You)
TTITLE15=Eddie Rabbitt - We Must Be Doing Something Right
TTITLE16=Glen Campbell - The Hand That Rocks The Cradle
TTITLE17=Charlie Pride - Why Baby Why
TTITLE18=Dan Seals - Everything That Glitters (Is Not Gold)
TTITLE19=Highwaymen - Highwayman
EXTD=
EXTT0=ALABAMA
EXTT1=WILLIE NELSON
EXTT2=K.T.OSLIN
EXTT3=THE JUDDS
EXTT4=JOHN SCHNEIDER
EXTT5=STEVE WARINER
EXTT6=ANNE MURRAY
EXTT7=RESTLESS HEART
EXTT8=CLINT BLACK
EXTT9=T. GRAHAM BROWN
EXTT10=GEORGE STRAIT
EXTT11=LEE GREENWOOD
EXTT12=STEVE WARINER
EXTT13=WAYLON JENNINGS
EXTT14=LARRY GATLIN AND THE GATLIN BROTHERS
EXTT15=EDDIE RABBITT
EXTT16=GLEN CAMPBELL WITH STEVE WARINER
EXTT17=CHARLEY PRIDE
EXTT18=DAN SEALS
EXTT19=JOHNNY CASH, WAYLON JENNINGS, WILLIE NELSON AND KRIS KRISTOFFERSON
PLAYORDER=
